<?xml version="1.0" encoding="UTF-8" standalone="no"?>
<!-- Created with Inkscape (http://www.inkscape.org/) -->

<svg
   viewBox="0 0 12.7 12.7"
preserveAspectRatio="xMinYMin meet"
   version="1.1"
   id="svg1"
   xml:space="preserve"
   xmlns="http://www.w3.org/2000/svg"
   xmlns:svg="http://www.w3.org/2000/svg"><defs
     id="defs1" /><g
     id="layer1"><rect
       style="fill:#ffffff;fill-opacity:1;stroke:#000000;stroke-width:0.396444;stroke-linecap:round;stroke-linejoin:round;stroke-dasharray:none;stroke-opacity:1"
       id="rect1"
       height="11.774389"
       x="2.187335"
       y="0.46280536"
       width="8.325326" /><path
       style="fill:#000000;fill-opacity:1;stroke:#000000;stroke-width:0.396444;stroke-linecap:round;stroke-linejoin:round;stroke-dasharray:none;stroke-opacity:1"
       d="m 2.9802244,3.8325799 h 6.739549"
       id="path2-1-7-5" /><path
       style="fill:#000000;fill-opacity:1;stroke:#000000;stroke-width:0.396444;stroke-linecap:round;stroke-linejoin:round;stroke-dasharray:none;stroke-opacity:1"
       d="m 2.9802244,4.6254681 h 3.171552"
       id="path2-1-7-5-0" /><rect
       style="fill:#d40000;fill-opacity:1;stroke:#800000;stroke-width:0.396444;stroke-linecap:round;stroke-linejoin:round;stroke-dasharray:none;stroke-opacity:1"
       id="rect2"
       width="11.893323"
       height="4.9555511"
       x="0.40333852"
       y="5.3707833" /><path
       style="fill:#000000;fill-opacity:1;stroke:#000000;stroke-width:0.396444;stroke-linecap:round;stroke-linejoin:round;stroke-dasharray:none;stroke-opacity:1"
       d="m 2.9802244,1.4539154 h 6.739549"
       id="path2" /><path
       style="fill:#000000;fill-opacity:1;stroke:#000000;stroke-width:0.396444;stroke-linecap:round;stroke-linejoin:round;stroke-dasharray:none;stroke-opacity:1"
       d="m 2.9802244,2.2468036 h 6.739549"
       id="path2-1" /><path
       style="fill:#000000;fill-opacity:1;stroke:#000000;stroke-width:0.396444;stroke-linecap:round;stroke-linejoin:round;stroke-dasharray:none;stroke-opacity:1"
       d="m 2.9802244,3.0396918 h 6.739549"
       id="path2-1-7" /><path
       d="m 3.2586818,7.9474101 c 0.2643301,0 0.5107394,-0.071683 0.7481884,-0.2240085 C 4.2443192,7.5710758 4.3608036,7.364988 4.3608036,7.1096183 4.3608036,6.8542486 4.2308787,6.6436807 3.9710288,6.4823946 3.7515005,6.3435093 3.500611,6.2763067 3.2183603,6.2763067 H 1.5338165 V 6.468954 h 0.1433654 c 0.1299249,0 0.210568,0.00448 0.2329688,0.00896 0.071683,0.017921 0.1075241,0.071683 0.1075241,0.1657663 v 2.3252081 c 0,0.094083 -0.035841,0.1478456 -0.1075241,0.1657663 -0.022401,0.00448 -0.1030439,0.00896 -0.2329688,0.00896 H 1.5338165 V 9.336262 c 0.1299249,-0.00896 0.3718541,-0.013441 0.7213073,-0.013441 0.3494533,0 0.5913824,0.00448 0.7213073,0.013441 V 9.1436154 H 2.8330657 c -0.1299249,0 -0.210568,-0.00448 -0.2329688,-0.00896 C 2.5284142,9.1167344 2.4925728,9.0629723 2.4925728,8.9688888 V 7.9474101 Z M 2.6807399,6.468954 h 0.421136 c 0.2822507,0 0.4838583,0.071683 0.5958626,0.2060879 0.1164844,0.1388852 0.1209646,0.2553696 0.1209646,0.4704178 0,0.3136119 -0.1254448,0.5196997 -0.394255,0.5869022 -0.1164844,0.026881 -0.2240085,0.044802 -0.3225722,0.044802 H 2.4791323 V 6.6123195 c 0,-0.1523258 0.026881,-0.1433655 0.2016076,-0.1433655 z m 3.8439837,2.8673087 c 0.4121757,0 0.7616289,-0.1433654 1.0438796,-0.4390566 C 7.8508539,8.6015149 7.9942193,8.2431013 7.9942193,7.8219653 7.9942193,7.4008294 7.8553341,7.0379356 7.5730834,6.7332841 7.2908327,6.4286325 6.9413794,6.2763067 6.5247236,6.2763067 H 4.7729773 V 6.468954 h 0.1433654 c 0.1299249,0 0.210568,0.00448 0.2329688,0.00896 0.071683,0.017921 0.1075241,0.071683 0.1075241,0.1657663 v 2.3252081 c 0,0.094083 -0.035841,0.1478456 -0.1075241,0.1657663 -0.022401,0.00448 -0.1030439,0.00896 -0.2329688,0.00896 H 4.7729773 v 0.192648 z M 6.3947987,9.1436154 h -0.474898 c -0.1747266,0 -0.2016076,0.00896 -0.2016076,-0.1433654 V 6.6123195 c 0,-0.1523258 0.026881,-0.1433655 0.2016076,-0.1433655 h 0.4704178 c 0.3539335,0 0.631704,0.1344051 0.8377918,0.3987352 0.1568059,0.2016076 0.237449,0.5152195 0.237449,0.9453158 0,0.8109107 -0.3136119,1.3306104 -1.0707606,1.3306104 z M 9.5533224,6.4823946 h 0.5689816 c 0.336013,0 0.555541,0.062722 0.663065,0.1926473 0.147846,0.1747266 0.170247,0.3584135 0.210568,0.6585849 h 0.170246 L 11.031778,6.2897473 H 8.3974386 v 0.1926473 h 0.1388852 c 0.1344051,0 0.210568,0.00448 0.2329689,0.00896 0.076163,0.017921 0.1120042,0.071683 0.1120042,0.1657663 v 2.3117676 c 0,0.094083 -0.035841,0.1478456 -0.1120042,0.1657663 -0.022401,0.00448 -0.098564,0.00896 -0.2329689,0.00896 H 8.3974386 v 0.1926473 c 0.1299249,-0.00896 0.3897747,-0.013441 0.7795495,-0.013441 0.3897748,0 0.6496246,0.00448 0.7795496,0.013441 V 9.1436154 h -0.183687 c -0.2419292,0 -0.3763343,-0.022401 -0.4032153,-0.067203 -0.00896,-0.017921 -0.01344,-0.053762 -0.01344,-0.1120043 V 7.9070885 h 0.3763343 c 0.2060878,0 0.3360133,0.031361 0.3897743,0.098564 0.05376,0.067203 0.08064,0.2060878 0.08064,0.4166558 h 0.174728 V 7.1992217 h -0.174728 c 0,0.210568 -0.02688,0.3494533 -0.08064,0.4166558 -0.05376,0.067203 -0.1836865,0.098564 -0.3897743,0.098564 H 9.3561949 V 6.62576 c 0,-0.1523258 0.026881,-0.1433654 0.1971275,-0.1433654 z"
       id="text2"
       style="font-weight:380;font-size:4.48017px;font-family:NewComputerModern08;-inkscape-font-specification:'NewComputerModern08 Book';fill:#ffffff;stroke-width:0.373347;stroke-linecap:round;stroke-linejoin:round"
       aria-label="PDF" /></g></svg>
